# xmcd
#
# Track frame offsets:
#	150
#	23851
#	52584
#	74984
#	92735
#	119810
#	142746
#	166790
#	188824
#	212287
#	237597
#
# Disc length: 3437
#
# Revision: 2
# Processed by: cddbd v1.5.1PL0 Copyright (c) Steve Scherf et al.
# Submitted via: ExactAudioCopy v0.95a5
# Normalized: r1:TRMNUM
#
DISCID=960d6b0b
DTITLE=Diego. - Instant Reality
DYEAR=2003
DGENRE=TECHNO
TTITLE0=Heavenly Blue
TTITLE1=Mind Detergent
TTITLE2=Me Fragments
TTITLE3=Sacrament
TTITLE4=Thought Pattern Pt.2
TTITLE5=Launcher
TTITLE6=The Rinsing Rrror
TTITLE7=Innerfunk
TTITLE8=Widewalker
TTITLE9=High In Spaces
TTITLE10=Lander
EXTD=YEAR: 2003
EXTT0=
EXTT1=
EXTT2=
EXTT3=
EXTT4=
EXTT5=
EXTT6=
EXTT7=
EXTT8=
EXTT9=
EXTT10=
PLAYORDER=
